<?xml version="1.0" encoding="utf-8"?>
<!-- Generator: Adobe Illustrator 27.0.0, SVG Export Plug-In . SVG Version: 6.00 Build 0)  -->
<svg version="1.1" id="Layer_1" xmlns="http://www.w3.org/2000/svg" xmlns:xlink="http://www.w3.org/1999/xlink" x="0px" y="0px"
	 viewBox="0 0 4096 2234" style="enable-background:new 0 0 4096 2234;" xml:space="preserve">
<style type="text/css">
	.st0{fill:#F97415;}
	.st1{fill:#344955;}
	.st2{fill:#FFFFFF;}
</style>
<g>
	<path class="st0" d="M2006.3,950.4c43.5,0.3,87.1-0.1,130.6-0.1c26.6,0,55.1-1.2,81.2,1.6c1.7,0.2,3.4,0.4,5.1,0.6s3.4,0.5,5,0.8
		c1.7,0.3,3.3,0.6,4.9,0.9s3.2,0.7,4.8,1.1c1.6,0.4,3.2,0.8,4.7,1.2c1.6,0.4,3.1,0.9,4.6,1.3c1.5,0.5,3,1,4.5,1.5s2.9,1,4.3,1.6
		c36.9,14.5,53.1,40.9,59.1,64.5c6.8,26.9,4.5,60.4-17.6,85.2c-7.8,8.7-18.4,16.2-29.1,23.9c28.2,12,46.2,25.6,57.8,44.2
		c24.5,39.1,18.1,87.4-14.9,124.4c-6.3,6.4-13.9,12.4-23.2,17.7c-45.5,25.4-108.7,20.8-168.1,20.6c-37.9-0.1-75.9-0.1-113.8,0
		C2006.8,1211,2003.9,1080.7,2006.3,950.4z M2082.1,1274.2c33.3,0.1,101.5,3.1,131.8-1.7c10.4-1.7,18.6-4.5,26.3-8.6
		c0.5-0.3,1-0.5,1.5-0.8c20.2-16.7,24-36.3,17-55.7c-4-11-13.1-21.8-30.6-28.2c-29.2-10.8-109.5-6.5-145.7-6.2
		C2080.3,1206.5,2081.9,1240.5,2082.1,1274.2z M2082.8,1108.3c31.2,0.1,87.8,2.9,116.4-2.9c8.6-1.8,15.2-4.8,22.1-8
		c19.3-14.4,23.2-31.7,18-49.1c-3-10.1-10.6-20.1-26.6-26.1c-26.6-10-97.1-5.6-129.8-5.3C2081.2,1047,2080.9,1078.1,2082.8,1108.3z"
		/>
	<path class="st0" d="M1688.4,950.1h84.6c58.2,130.1,110.4,261.2,166.8,391.6l-83,0.1c-12-27.6-22.6-55.5-34-83.2l-50.8-0.1
		l-134.9,0.3l-34.2,82.8l-81.6,0.3c17.9-38.6,33.2-77.6,49.7-116.3L1688.4,950.1z M1663.3,1192.4l64.2,0.2l67.9-0.1
		c-7.9-19.4-57.8-151.1-66.4-157.5c-7.5,14-12.4,28.5-18.1,42.8C1695.6,1115.9,1682.4,1154.8,1663.3,1192.4z"/>
	<path class="st0" d="M2625.8,1341.1V950.6l74.9-0.1l0.2,154.8h181.4V950.8l75-0.3l0.6,390.5l-75.5,0.1l-0.2-167.4h-180.9
		l-0.1,167.4"/>
	<path class="st0" d="M1025.1,892.3l110.5-0.3c6.3,20.9,10,42.1,15.6,63.1c43.3,0.1,167.6-2.6,199.6,2.5c15,2.4,29.4,8.2,40.4,14.2
		c49,26.7,65.1,73.4,64.7,109.7c-0.4,35.8-15.6,83.5-64.7,109.7c-8.5,4.5-18,8.4-27.4,12.3c35.4,46.2,70.4,93.1,109.6,138.2
		l-77.6,0.2c-32.5-45-68.4-89.5-103.8-133.9c-45.9,0.1-92.9,1.3-138.7,0l-3.7,0.2c-8.8-18.2-10.5-42.6-14.6-61.6l-20-89.6
		c17.7,0,38.6-1.5,55.7,0.6l1.4,2.3c4.4,10.3,5.9,21.3,8.3,31.8c4.8,20.1,9.1,40.3,13.1,60.5c33.6,0.1,114,2.6,141.5-1.4
		c9-1.3,17.4-4,24.4-7.4c27.5-13.5,37.6-36.9,39-56.3c1.5-21.8-5.9-48.4-34.7-64.8c-21-12-43.2-10.8-70.9-11.1
		c-62.2,1.3-125,0.5-187.3,0.6c-1.1-6.2-2.2-12.5-3.5-18.7c-4.5-15.5-8-31-10.7-46.7c-22,0-44,0.2-65.9,0L1025.1,892.3z"/>
	<path class="st0" d="M2430.1,1341.4l0.1-219.7l0.1-171.2l74.6-0.2l1.4,391.1H2430.1z"/>
	<path class="st0" d="M1190.8,1259.9c3.9-0.3,7.5-0.5,11.5-0.1c9.5,0.8,17.9,4.5,23.4,8.6c14.2,10.6,16.4,29.1,12.7,41.8
		c-3.7,12.7-12.7,23.2-32.1,30.8c-3,0.2-5.8,0.3-8.9,0.1c-9-0.4-17.9-4.6-23.2-8.3c-15.6-11-18.4-30.3-14.4-43.7
		C1163.5,1277.1,1172.3,1267,1190.8,1259.9z"/>
</g>
</svg>
